<?xml version="1.0" encoding="iso-8859-1"?>
<!-- Generator: Adobe Illustrator 19.0.0, SVG Export Plug-In . SVG Version: 6.00 Build 0)  -->
<svg version="1.1" id="Layer_1" xmlns="http://www.w3.org/2000/svg" xmlns:xlink="http://www.w3.org/1999/xlink" x="0px" y="0px"
	 viewBox="0 0 512.001 512.001" style="enable-background:new 0 0 512.001 512.001;" xml:space="preserve">
<g>
	<g>
		<g>
			<path d="M509.618,404.733l-85.514-148.121c-2.302-3.987-8.06-3.847-10.229,0.213c-24.796,46.415-68.181,78.769-118.101,90.055
				c-3.825,0.865-5.7,5.207-3.74,8.603l75.727,131.163c7.476,12.949,26.64,11.149,31.661-2.842l23.488-65.441l68.417,12.37
				C505.976,433.379,517.065,417.632,509.618,404.733z"/>
			<path d="M216.227,346.881c-49.937-11.291-93.316-43.662-118.101-90.055c-2.169-4.061-7.927-4.2-10.229-0.214L2.382,404.733
				c-7.441,12.888,3.632,28.647,18.289,26l68.417-12.37l23.488,65.441c5.021,13.986,24.184,15.794,31.661,2.842l75.727-131.163
				C221.926,352.086,220.052,347.745,216.227,346.881z"/>
			<path d="M400.821,229.56v-0.001c18.976-47.929,12.966-102.055-16.077-144.789C322.965-6.137,189.025-6.112,127.267,84.761
				c-29.048,42.743-35.063,96.872-16.088,144.799C163.147,360.791,349.099,360.177,400.821,229.56z M341.591,168.333l-30.086,29.325
				l7.102,41.409c2.47,14.403-12.702,25.159-25.42,18.469L256,237.986l-37.188,19.551c-12.825,6.743-27.871-4.177-25.42-18.469
				l7.102-41.409l-30.086-29.325c-10.376-10.116-4.639-27.798,9.709-29.882l41.577-6.042l18.593-37.675
				c6.413-12.996,25.004-13.003,31.421,0l18.593,37.675l41.577,6.042C346.221,140.534,351.973,158.212,341.591,168.333z"/>
		</g>
	</g>
</g>
<g>
</g>
<g>
</g>
<g>
</g>
<g>
</g>
<g>
</g>
<g>
</g>
<g>
</g>
<g>
</g>
<g>
</g>
<g>
</g>
<g>
</g>
<g>
</g>
<g>
</g>
<g>
</g>
<g>
</g>
</svg>
