<?xml version="1.0" encoding="iso-8859-1"?>
<!-- Generator: Adobe Illustrator 19.0.0, SVG Export Plug-In . SVG Version: 6.00 Build 0)  -->
<svg version="1.1" id="Layer_1" xmlns="http://www.w3.org/2000/svg" xmlns:xlink="http://www.w3.org/1999/xlink" x="0px" y="0px"
	 viewBox="0 0 511.999 511.999" style="enable-background:new 0 0 511.999 511.999;" xml:space="preserve">
<g>
	<g>
		<path d="M203.271,92.915c-0.493,0-0.985,0.01-1.477,0.016l-5.121,13.178l44.17,34.042c7.051,5.434,8.359,15.553,2.926,22.604
			c-3.174,4.12-7.95,6.281-12.777,6.281c-3.435,0-6.896-1.095-9.827-3.354l-27.767-21.4v29.012c0,8.901-7.216,16.117-16.117,16.117
			s-16.117-7.216-16.117-16.117v-29.013l-27.766,21.4c-2.932,2.26-6.392,3.354-9.827,3.354c-4.827,0-9.601-2.161-12.777-6.281
			c-5.432-7.051-4.125-17.169,2.926-22.604l50.168-38.664l3.015-7.762c-5.207-0.534-10.422-0.808-15.608-0.808
			c-44.894,0-80.666,11.223-106.325,33.358C15.13,152.017,0,191.558,0,243.79c0,71.125,42.108,132.589,102.697,160.805
			l136.181-232.307c14.711-25.094,36.334-43.59,61.373-53.109C275.694,101.899,243.149,92.915,203.271,92.915z"/>
	</g>
</g>
<g>
	<g>
		<path d="M204.61,41.202c-8.294-3.222-17.636,0.887-20.859,9.184l-16.845,43.337l34.89-0.793l0.869-2.238l11.127-28.63
			C217.018,53.766,212.907,44.427,204.61,41.202z"/>
	</g>
</g>
<g>
	<g>
		<path d="M511.878,187.62c-1.107-9.953-9.533-17.312-19.316-17.312c-0.717,0-1.441,0.04-2.171,0.122l-43.375,4.819l37.389-37.39
			c7.599-7.599,7.599-19.916,0-27.516c-3.799-3.799-8.779-5.7-13.757-5.7c-4.98,0-9.959,1.9-13.759,5.7l-37.39,37.39l4.821-43.374
			c1.187-10.679-6.509-20.3-17.19-21.486c-0.73-0.082-1.455-0.121-2.173-0.121c-9.783,0-18.209,7.36-19.314,17.31l-6.876,61.886
			c-12.27-7.242-25.753-11.089-39.284-11.089c-2.802,0-5.606,0.183-8.404,0.515c-0.202,0.026-0.406,0.032-0.608,0.058
			c-23.544,3.021-44.693,17.795-58.023,40.534l-29.023,49.51l42.511,42.511c7.597,7.597,7.597,19.918-0.001,27.516
			c-7.597,7.597-19.917,7.597-27.516,0c-0.001,0,0,0-0.001,0l-35.33-35.331l-82.676,141.034l-14.885,25.39
			c-4.479,7.638-3.235,17.336,3.026,23.596c3.749,3.75,8.732,5.701,13.765,5.701c3.373,0,6.767-0.877,9.832-2.672l235.427-138.006
			l-39.587-39.589l-24.758-24.76c-7.599-7.597-7.6-19.919-0.001-27.516c7.597-7.597,19.919-7.597,27.517,0l3.806,3.806
			l65.787,65.788c12.695-12.376,20.827-27.905,22.976-44.667c2.117-16.494-1.664-33.3-10.516-48.297l61.888-6.876
			C505.369,207.917,513.064,198.298,511.878,187.62z"/>
	</g>
</g>
<g>
</g>
<g>
</g>
<g>
</g>
<g>
</g>
<g>
</g>
<g>
</g>
<g>
</g>
<g>
</g>
<g>
</g>
<g>
</g>
<g>
</g>
<g>
</g>
<g>
</g>
<g>
</g>
<g>
</g>
</svg>
